<?xml version="1.0" encoding="utf-8"?>
<!-- Generator: Adobe Illustrator 16.0.4, SVG Export Plug-In . SVG Version: 6.00 Build 0)  -->
<!DOCTYPE svg PUBLIC "-//W3C//DTD SVG 1.1//EN" "http://www.w3.org/Graphics/SVG/1.1/DTD/svg11.dtd">
<svg version="1.1" id="Layer_1" xmlns="http://www.w3.org/2000/svg" xmlns:xlink="http://www.w3.org/1999/xlink" x="0px" y="0px"
	 width="95px" height="100px" viewBox="0 0 95 100" enable-background="new 0 0 95 100" xml:space="preserve">
<path fill-rule="evenodd" clip-rule="evenodd" fill="#FFFFFF" d="M0,71.26C7.97,88.24,25.19,100,45.14,100C72.68,100,95,77.61,95,50
	S72.68,0,45.14,0C25.84,0,9.09,11.01,0.81,27.1c4.81-3.26,10.81-5.04,17.32-5.04c11.16,0,18.34,5.53,22.46,11.79l-9.65,5.07
	c-2.54-3.73-7.15-6.9-12.81-6.9c-9.88,0-17,7.38-17,17.42c0,10.09,7.12,17.5,17,17.5c4.77,0,9.22-2.07,11.41-4.06v-6.37H15.29v-9.97
	h25.96v20.48c-5.61,6.01-13.41,9.88-23.12,9.88C11.25,76.9,4.94,74.9,0,71.26z M74.47,70.59H47.71V31.86h11.47v28.77h15.29V70.59z"
	/>
</svg>
